<mxfile host="Electron" agent="Mozilla/5.0 (Windows NT 10.0; Win64; x64) AppleWebKit/537.36 (KHTML, like Gecko) draw.io/27.0.2 Chrome/134.0.6998.205 Electron/35.3.0 Safari/537.36" version="27.0.2">
  <diagram name="Страница — 1" id="0gtXbMAsNNq_AVAGxlWv">
    <mxGraphModel dx="464" dy="3178" grid="1" gridSize="10" guides="1" tooltips="1" connect="1" arrows="1" fold="1" page="1" pageScale="1" pageWidth="827" pageHeight="1169" math="0" shadow="0">
      <root>
        <mxCell id="0" />
        <mxCell id="1" parent="0" />
        <mxCell id="Wy8VQFSeYeaLGXemRtFa-7" style="edgeStyle=orthogonalEdgeStyle;rounded=0;orthogonalLoop=1;jettySize=auto;html=1;exitX=1;exitY=0.5;exitDx=0;exitDy=0;entryX=0;entryY=0.5;entryDx=0;entryDy=0;endArrow=none;startFill=0;labelBackgroundColor=none;fontColor=default;fontFamily=Helvetica;fontSize=15;" parent="1" source="Wy8VQFSeYeaLGXemRtFa-1" target="Wy8VQFSeYeaLGXemRtFa-2" edge="1">
          <mxGeometry relative="1" as="geometry" />
        </mxCell>
        <mxCell id="Wy8VQFSeYeaLGXemRtFa-12" style="edgeStyle=orthogonalEdgeStyle;rounded=0;orthogonalLoop=1;jettySize=auto;html=1;entryX=0;entryY=0.5;entryDx=0;entryDy=0;endArrow=none;startFill=0;labelBackgroundColor=none;fontColor=default;fontFamily=Helvetica;fontSize=15;" parent="1" source="Wy8VQFSeYeaLGXemRtFa-1" target="Wy8VQFSeYeaLGXemRtFa-5" edge="1">
          <mxGeometry relative="1" as="geometry" />
        </mxCell>
        <mxCell id="Wy8VQFSeYeaLGXemRtFa-1" value="User" style="rounded=0;whiteSpace=wrap;html=1;labelBackgroundColor=none;fontFamily=Helvetica;fontSize=15;" parent="1" vertex="1">
          <mxGeometry x="580" y="-1720" width="160" height="40" as="geometry" />
        </mxCell>
        <mxCell id="Wy8VQFSeYeaLGXemRtFa-2" value="UserID" style="ellipse;whiteSpace=wrap;html=1;labelBackgroundColor=none;fontFamily=Helvetica;fontSize=15;" parent="1" vertex="1">
          <mxGeometry x="875" y="-1778.5" width="150" height="40" as="geometry" />
        </mxCell>
        <mxCell id="Wy8VQFSeYeaLGXemRtFa-9" style="edgeStyle=orthogonalEdgeStyle;rounded=0;orthogonalLoop=1;jettySize=auto;html=1;entryX=1;entryY=0.5;entryDx=0;entryDy=0;endArrow=none;startFill=0;labelBackgroundColor=none;fontColor=default;fontFamily=Helvetica;fontSize=15;" parent="1" source="Wy8VQFSeYeaLGXemRtFa-3" target="Wy8VQFSeYeaLGXemRtFa-1" edge="1">
          <mxGeometry relative="1" as="geometry">
            <Array as="points">
              <mxPoint x="900" y="-1700" />
              <mxPoint x="900" y="-1700" />
            </Array>
          </mxGeometry>
        </mxCell>
        <mxCell id="Wy8VQFSeYeaLGXemRtFa-3" value="UserName" style="ellipse;whiteSpace=wrap;html=1;labelBackgroundColor=none;fontFamily=Helvetica;fontSize=15;" parent="1" vertex="1">
          <mxGeometry x="875" y="-1718.5" width="150" height="40" as="geometry" />
        </mxCell>
        <mxCell id="Wy8VQFSeYeaLGXemRtFa-5" value="Role" style="ellipse;whiteSpace=wrap;html=1;labelBackgroundColor=none;fontFamily=Helvetica;fontSize=15;" parent="1" vertex="1">
          <mxGeometry x="875" y="-1658.5" width="150" height="37" as="geometry" />
        </mxCell>
        <mxCell id="Wy8VQFSeYeaLGXemRtFa-13" style="edgeStyle=orthogonalEdgeStyle;rounded=0;orthogonalLoop=1;jettySize=auto;html=1;exitX=0.5;exitY=1;exitDx=0;exitDy=0;entryX=0;entryY=0.5;entryDx=0;entryDy=0;endArrow=none;startFill=0;labelBackgroundColor=none;fontColor=default;fontFamily=Helvetica;fontSize=15;" parent="1" source="Wy8VQFSeYeaLGXemRtFa-17" target="Wy8VQFSeYeaLGXemRtFa-18" edge="1">
          <mxGeometry relative="1" as="geometry" />
        </mxCell>
        <mxCell id="Wy8VQFSeYeaLGXemRtFa-14" style="edgeStyle=orthogonalEdgeStyle;rounded=0;orthogonalLoop=1;jettySize=auto;html=1;entryX=0;entryY=0.5;entryDx=0;entryDy=0;endArrow=none;startFill=0;labelBackgroundColor=none;fontColor=default;fontFamily=Helvetica;fontSize=15;" parent="1" source="Wy8VQFSeYeaLGXemRtFa-17" target="Wy8VQFSeYeaLGXemRtFa-21" edge="1">
          <mxGeometry relative="1" as="geometry" />
        </mxCell>
        <mxCell id="Wy8VQFSeYeaLGXemRtFa-15" style="edgeStyle=orthogonalEdgeStyle;rounded=0;orthogonalLoop=1;jettySize=auto;html=1;entryX=0;entryY=0.5;entryDx=0;entryDy=0;endArrow=none;startFill=0;labelBackgroundColor=none;fontColor=default;fontFamily=Helvetica;fontSize=15;" parent="1" source="Wy8VQFSeYeaLGXemRtFa-17" target="Wy8VQFSeYeaLGXemRtFa-23" edge="1">
          <mxGeometry relative="1" as="geometry" />
        </mxCell>
        <mxCell id="Wy8VQFSeYeaLGXemRtFa-16" style="edgeStyle=orthogonalEdgeStyle;rounded=0;orthogonalLoop=1;jettySize=auto;html=1;entryX=0;entryY=0.5;entryDx=0;entryDy=0;endArrow=none;startFill=0;labelBackgroundColor=none;fontColor=default;fontFamily=Helvetica;fontSize=15;" parent="1" source="Wy8VQFSeYeaLGXemRtFa-17" target="Wy8VQFSeYeaLGXemRtFa-22" edge="1">
          <mxGeometry relative="1" as="geometry" />
        </mxCell>
        <mxCell id="Wy8VQFSeYeaLGXemRtFa-17" value="Message" style="rounded=0;whiteSpace=wrap;html=1;labelBackgroundColor=none;fontFamily=Helvetica;fontSize=15;" parent="1" vertex="1">
          <mxGeometry x="310" y="-1440" width="160" height="40" as="geometry" />
        </mxCell>
        <mxCell id="Wy8VQFSeYeaLGXemRtFa-18" value="MessageID" style="ellipse;whiteSpace=wrap;html=1;labelBackgroundColor=none;fontFamily=Helvetica;fontSize=15;" parent="1" vertex="1">
          <mxGeometry x="430" y="-1318.5" width="150" height="40" as="geometry" />
        </mxCell>
        <mxCell id="Wy8VQFSeYeaLGXemRtFa-19" style="edgeStyle=orthogonalEdgeStyle;rounded=0;orthogonalLoop=1;jettySize=auto;html=1;entryX=0.5;entryY=1;entryDx=0;entryDy=0;endArrow=none;startFill=0;labelBackgroundColor=none;fontColor=default;fontFamily=Helvetica;fontSize=15;" parent="1" source="Wy8VQFSeYeaLGXemRtFa-20" target="Wy8VQFSeYeaLGXemRtFa-17" edge="1">
          <mxGeometry relative="1" as="geometry">
            <Array as="points">
              <mxPoint x="390" y="-1235" />
            </Array>
          </mxGeometry>
        </mxCell>
        <mxCell id="Wy8VQFSeYeaLGXemRtFa-20" value="SenderID" style="ellipse;whiteSpace=wrap;html=1;labelBackgroundColor=none;fontFamily=Helvetica;fontSize=15;" parent="1" vertex="1">
          <mxGeometry x="430" y="-1258.5" width="150" height="40" as="geometry" />
        </mxCell>
        <mxCell id="Wy8VQFSeYeaLGXemRtFa-21" value="ReceiverID" style="ellipse;whiteSpace=wrap;html=1;labelBackgroundColor=none;fontFamily=Helvetica;fontSize=15;" parent="1" vertex="1">
          <mxGeometry x="430" y="-1198.5" width="150" height="40" as="geometry" />
        </mxCell>
        <mxCell id="Wy8VQFSeYeaLGXemRtFa-22" value="Timestamp" style="ellipse;whiteSpace=wrap;html=1;labelBackgroundColor=none;fontFamily=Helvetica;fontSize=15;" parent="1" vertex="1">
          <mxGeometry x="430" y="-1078.5" width="150" height="37" as="geometry" />
        </mxCell>
        <mxCell id="Wy8VQFSeYeaLGXemRtFa-23" value="Content" style="ellipse;whiteSpace=wrap;html=1;labelBackgroundColor=none;fontFamily=Helvetica;fontSize=15;" parent="1" vertex="1">
          <mxGeometry x="430" y="-1138.5" width="150" height="37" as="geometry" />
        </mxCell>
        <mxCell id="Wy8VQFSeYeaLGXemRtFa-24" style="edgeStyle=orthogonalEdgeStyle;rounded=0;orthogonalLoop=1;jettySize=auto;html=1;exitX=0.5;exitY=1;exitDx=0;exitDy=0;entryX=0;entryY=0.5;entryDx=0;entryDy=0;endArrow=none;startFill=0;labelBackgroundColor=none;fontColor=default;fontFamily=Helvetica;fontSize=15;" parent="1" source="Wy8VQFSeYeaLGXemRtFa-28" target="Wy8VQFSeYeaLGXemRtFa-29" edge="1">
          <mxGeometry relative="1" as="geometry" />
        </mxCell>
        <mxCell id="Wy8VQFSeYeaLGXemRtFa-25" style="edgeStyle=orthogonalEdgeStyle;rounded=0;orthogonalLoop=1;jettySize=auto;html=1;entryX=0;entryY=0.5;entryDx=0;entryDy=0;endArrow=none;startFill=0;labelBackgroundColor=none;fontColor=default;fontFamily=Helvetica;fontSize=15;" parent="1" source="Wy8VQFSeYeaLGXemRtFa-28" target="Wy8VQFSeYeaLGXemRtFa-32" edge="1">
          <mxGeometry relative="1" as="geometry" />
        </mxCell>
        <mxCell id="Wy8VQFSeYeaLGXemRtFa-26" style="edgeStyle=orthogonalEdgeStyle;rounded=0;orthogonalLoop=1;jettySize=auto;html=1;entryX=0;entryY=0.5;entryDx=0;entryDy=0;endArrow=none;startFill=0;labelBackgroundColor=none;fontColor=default;fontFamily=Helvetica;fontSize=15;" parent="1" source="Wy8VQFSeYeaLGXemRtFa-28" target="Wy8VQFSeYeaLGXemRtFa-34" edge="1">
          <mxGeometry relative="1" as="geometry" />
        </mxCell>
        <mxCell id="Wy8VQFSeYeaLGXemRtFa-27" style="edgeStyle=orthogonalEdgeStyle;rounded=0;orthogonalLoop=1;jettySize=auto;html=1;entryX=0;entryY=0.5;entryDx=0;entryDy=0;endArrow=none;startFill=0;labelBackgroundColor=none;fontColor=default;fontFamily=Helvetica;fontSize=15;" parent="1" source="Wy8VQFSeYeaLGXemRtFa-28" target="Wy8VQFSeYeaLGXemRtFa-33" edge="1">
          <mxGeometry relative="1" as="geometry" />
        </mxCell>
        <mxCell id="Wy8VQFSeYeaLGXemRtFa-28" value="File" style="rounded=0;whiteSpace=wrap;html=1;labelBackgroundColor=none;fontFamily=Helvetica;fontSize=15;" parent="1" vertex="1">
          <mxGeometry x="850" y="-1440" width="160" height="40" as="geometry" />
        </mxCell>
        <mxCell id="Wy8VQFSeYeaLGXemRtFa-29" value="FileID" style="ellipse;whiteSpace=wrap;html=1;labelBackgroundColor=none;fontFamily=Helvetica;fontSize=15;" parent="1" vertex="1">
          <mxGeometry x="950" y="-1318.5" width="150" height="40" as="geometry" />
        </mxCell>
        <mxCell id="Wy8VQFSeYeaLGXemRtFa-30" style="edgeStyle=orthogonalEdgeStyle;rounded=0;orthogonalLoop=1;jettySize=auto;html=1;endArrow=none;startFill=0;labelBackgroundColor=none;fontColor=default;entryX=0.5;entryY=1;entryDx=0;entryDy=0;fontFamily=Helvetica;fontSize=15;" parent="1" source="Wy8VQFSeYeaLGXemRtFa-31" target="Wy8VQFSeYeaLGXemRtFa-28" edge="1">
          <mxGeometry relative="1" as="geometry">
            <Array as="points">
              <mxPoint x="930" y="-1239" />
            </Array>
            <mxPoint x="1000" y="-1480" as="targetPoint" />
          </mxGeometry>
        </mxCell>
        <mxCell id="Wy8VQFSeYeaLGXemRtFa-31" value="FileName" style="ellipse;whiteSpace=wrap;html=1;labelBackgroundColor=none;fontFamily=Helvetica;fontSize=15;" parent="1" vertex="1">
          <mxGeometry x="950" y="-1258.5" width="150" height="40" as="geometry" />
        </mxCell>
        <mxCell id="Wy8VQFSeYeaLGXemRtFa-32" value="FileType" style="ellipse;whiteSpace=wrap;html=1;labelBackgroundColor=none;fontFamily=Helvetica;fontSize=15;" parent="1" vertex="1">
          <mxGeometry x="950" y="-1198.5" width="150" height="40" as="geometry" />
        </mxCell>
        <mxCell id="Wy8VQFSeYeaLGXemRtFa-33" value="UploadTimestamp" style="ellipse;whiteSpace=wrap;html=1;labelBackgroundColor=none;fontFamily=Helvetica;fontSize=15;" parent="1" vertex="1">
          <mxGeometry x="950" y="-1078.5" width="150" height="37" as="geometry" />
        </mxCell>
        <mxCell id="Wy8VQFSeYeaLGXemRtFa-34" value="UploadedBy" style="ellipse;whiteSpace=wrap;html=1;labelBackgroundColor=none;fontFamily=Helvetica;fontSize=15;" parent="1" vertex="1">
          <mxGeometry x="950" y="-1138.5" width="150" height="37" as="geometry" />
        </mxCell>
        <mxCell id="Wy8VQFSeYeaLGXemRtFa-35" style="edgeStyle=orthogonalEdgeStyle;rounded=0;orthogonalLoop=1;jettySize=auto;html=1;exitX=0.5;exitY=0;exitDx=0;exitDy=0;entryX=0;entryY=0.5;entryDx=0;entryDy=0;endArrow=none;startFill=0;labelBackgroundColor=none;fontColor=default;fontFamily=Helvetica;fontSize=15;" parent="1" source="Wy8VQFSeYeaLGXemRtFa-39" target="Wy8VQFSeYeaLGXemRtFa-40" edge="1">
          <mxGeometry relative="1" as="geometry" />
        </mxCell>
        <mxCell id="Wy8VQFSeYeaLGXemRtFa-36" style="edgeStyle=orthogonalEdgeStyle;rounded=0;orthogonalLoop=1;jettySize=auto;html=1;entryX=0;entryY=0.5;entryDx=0;entryDy=0;endArrow=none;startFill=0;labelBackgroundColor=none;fontColor=default;fontFamily=Helvetica;fontSize=15;" parent="1" source="Wy8VQFSeYeaLGXemRtFa-39" target="Wy8VQFSeYeaLGXemRtFa-43" edge="1">
          <mxGeometry relative="1" as="geometry" />
        </mxCell>
        <mxCell id="Wy8VQFSeYeaLGXemRtFa-37" style="edgeStyle=orthogonalEdgeStyle;rounded=0;orthogonalLoop=1;jettySize=auto;html=1;entryX=0;entryY=0.5;entryDx=0;entryDy=0;endArrow=none;startFill=0;labelBackgroundColor=none;fontColor=default;fontFamily=Helvetica;fontSize=15;" parent="1" source="Wy8VQFSeYeaLGXemRtFa-39" target="Wy8VQFSeYeaLGXemRtFa-45" edge="1">
          <mxGeometry relative="1" as="geometry" />
        </mxCell>
        <mxCell id="Wy8VQFSeYeaLGXemRtFa-39" value="ProfileSettings" style="rounded=0;whiteSpace=wrap;html=1;labelBackgroundColor=none;fontFamily=Helvetica;fontSize=15;" parent="1" vertex="1">
          <mxGeometry x="170" y="-1954.5" width="160" height="40" as="geometry" />
        </mxCell>
        <mxCell id="Wy8VQFSeYeaLGXemRtFa-40" value="SettingID" style="ellipse;whiteSpace=wrap;html=1;labelBackgroundColor=none;fontFamily=Helvetica;fontSize=15;" parent="1" vertex="1">
          <mxGeometry x="270" y="-2270" width="150" height="40" as="geometry" />
        </mxCell>
        <mxCell id="Wy8VQFSeYeaLGXemRtFa-43" value="SettingName" style="ellipse;whiteSpace=wrap;html=1;labelBackgroundColor=none;fontFamily=Helvetica;fontSize=15;" parent="1" vertex="1">
          <mxGeometry x="270" y="-2207" width="150" height="40" as="geometry" />
        </mxCell>
        <mxCell id="Wy8VQFSeYeaLGXemRtFa-45" value="SettingValue" style="ellipse;whiteSpace=wrap;html=1;labelBackgroundColor=none;fontFamily=Helvetica;fontSize=15;" parent="1" vertex="1">
          <mxGeometry x="270" y="-2147" width="150" height="37" as="geometry" />
        </mxCell>
        <mxCell id="Wy8VQFSeYeaLGXemRtFa-46" style="edgeStyle=orthogonalEdgeStyle;rounded=0;orthogonalLoop=1;jettySize=auto;html=1;exitX=0.5;exitY=1;exitDx=0;exitDy=0;entryX=0;entryY=0.5;entryDx=0;entryDy=0;endArrow=none;startFill=0;labelBackgroundColor=none;fontColor=default;fontFamily=Helvetica;fontSize=15;" parent="1" source="Wy8VQFSeYeaLGXemRtFa-50" target="Wy8VQFSeYeaLGXemRtFa-51" edge="1">
          <mxGeometry relative="1" as="geometry" />
        </mxCell>
        <mxCell id="Wy8VQFSeYeaLGXemRtFa-47" style="edgeStyle=orthogonalEdgeStyle;rounded=0;orthogonalLoop=1;jettySize=auto;html=1;entryX=0;entryY=0.5;entryDx=0;entryDy=0;endArrow=none;startFill=0;labelBackgroundColor=none;fontColor=default;fontFamily=Helvetica;fontSize=15;" parent="1" source="Wy8VQFSeYeaLGXemRtFa-50" target="Wy8VQFSeYeaLGXemRtFa-54" edge="1">
          <mxGeometry relative="1" as="geometry" />
        </mxCell>
        <mxCell id="Wy8VQFSeYeaLGXemRtFa-48" style="edgeStyle=orthogonalEdgeStyle;rounded=0;orthogonalLoop=1;jettySize=auto;html=1;entryX=0;entryY=0.5;entryDx=0;entryDy=0;endArrow=none;startFill=0;labelBackgroundColor=none;fontColor=default;fontFamily=Helvetica;fontSize=15;" parent="1" source="Wy8VQFSeYeaLGXemRtFa-50" target="Wy8VQFSeYeaLGXemRtFa-56" edge="1">
          <mxGeometry relative="1" as="geometry" />
        </mxCell>
        <mxCell id="Wy8VQFSeYeaLGXemRtFa-50" value="MessageHistory" style="rounded=0;whiteSpace=wrap;html=1;labelBackgroundColor=none;fontFamily=Helvetica;fontSize=15;" parent="1" vertex="1">
          <mxGeometry x="30" y="-1440" width="160" height="40" as="geometry" />
        </mxCell>
        <mxCell id="Wy8VQFSeYeaLGXemRtFa-51" value="HistoryID" style="ellipse;whiteSpace=wrap;html=1;labelBackgroundColor=none;fontFamily=Helvetica;fontSize=15;" parent="1" vertex="1">
          <mxGeometry x="150" y="-1318.5" width="150" height="40" as="geometry" />
        </mxCell>
        <mxCell id="Wy8VQFSeYeaLGXemRtFa-52" style="edgeStyle=orthogonalEdgeStyle;rounded=0;orthogonalLoop=1;jettySize=auto;html=1;entryX=0.5;entryY=1;entryDx=0;entryDy=0;endArrow=none;startFill=0;labelBackgroundColor=none;fontColor=default;fontFamily=Helvetica;fontSize=15;" parent="1" source="Wy8VQFSeYeaLGXemRtFa-53" target="Wy8VQFSeYeaLGXemRtFa-50" edge="1">
          <mxGeometry relative="1" as="geometry">
            <Array as="points">
              <mxPoint x="110" y="-1240" />
            </Array>
          </mxGeometry>
        </mxCell>
        <mxCell id="Wy8VQFSeYeaLGXemRtFa-53" value="MessageID" style="ellipse;whiteSpace=wrap;html=1;labelBackgroundColor=none;fontFamily=Helvetica;fontSize=15;" parent="1" vertex="1">
          <mxGeometry x="150" y="-1258.5" width="150" height="40" as="geometry" />
        </mxCell>
        <mxCell id="Wy8VQFSeYeaLGXemRtFa-54" value="EditedContent" style="ellipse;whiteSpace=wrap;html=1;labelBackgroundColor=none;fontFamily=Helvetica;fontSize=15;" parent="1" vertex="1">
          <mxGeometry x="150" y="-1198.5" width="150" height="40" as="geometry" />
        </mxCell>
        <mxCell id="Wy8VQFSeYeaLGXemRtFa-56" value="EditedTimestamp" style="ellipse;whiteSpace=wrap;html=1;labelBackgroundColor=none;fontFamily=Helvetica;fontSize=15;" parent="1" vertex="1">
          <mxGeometry x="150" y="-1138.5" width="150" height="37" as="geometry" />
        </mxCell>
        <mxCell id="Wy8VQFSeYeaLGXemRtFa-57" style="edgeStyle=orthogonalEdgeStyle;rounded=0;orthogonalLoop=1;jettySize=auto;html=1;exitX=0.5;exitY=0;exitDx=0;exitDy=0;entryX=0;entryY=0.5;entryDx=0;entryDy=0;endArrow=none;startFill=0;labelBackgroundColor=none;fontColor=default;fontFamily=Helvetica;fontSize=15;" parent="1" source="Wy8VQFSeYeaLGXemRtFa-61" target="Wy8VQFSeYeaLGXemRtFa-62" edge="1">
          <mxGeometry relative="1" as="geometry" />
        </mxCell>
        <mxCell id="Wy8VQFSeYeaLGXemRtFa-58" style="edgeStyle=orthogonalEdgeStyle;rounded=0;orthogonalLoop=1;jettySize=auto;html=1;entryX=0;entryY=0.5;entryDx=0;entryDy=0;endArrow=none;startFill=0;labelBackgroundColor=none;fontColor=default;fontFamily=Helvetica;fontSize=15;" parent="1" source="Wy8VQFSeYeaLGXemRtFa-61" target="Wy8VQFSeYeaLGXemRtFa-65" edge="1">
          <mxGeometry relative="1" as="geometry" />
        </mxCell>
        <mxCell id="Wy8VQFSeYeaLGXemRtFa-59" style="edgeStyle=orthogonalEdgeStyle;rounded=0;orthogonalLoop=1;jettySize=auto;html=1;entryX=0;entryY=0.5;entryDx=0;entryDy=0;endArrow=none;startFill=0;labelBackgroundColor=none;fontColor=default;fontFamily=Helvetica;fontSize=15;" parent="1" source="Wy8VQFSeYeaLGXemRtFa-61" target="Wy8VQFSeYeaLGXemRtFa-67" edge="1">
          <mxGeometry relative="1" as="geometry" />
        </mxCell>
        <mxCell id="Wy8VQFSeYeaLGXemRtFa-60" style="edgeStyle=orthogonalEdgeStyle;rounded=0;orthogonalLoop=1;jettySize=auto;html=1;entryX=0;entryY=0.5;entryDx=0;entryDy=0;endArrow=none;startFill=0;labelBackgroundColor=none;fontColor=default;fontFamily=Helvetica;fontSize=15;" parent="1" source="Wy8VQFSeYeaLGXemRtFa-61" target="Wy8VQFSeYeaLGXemRtFa-66" edge="1">
          <mxGeometry relative="1" as="geometry" />
        </mxCell>
        <mxCell id="Wy8VQFSeYeaLGXemRtFa-61" value="BlockedUsers" style="rounded=0;whiteSpace=wrap;html=1;labelBackgroundColor=none;fontFamily=Helvetica;fontSize=15;" parent="1" vertex="1">
          <mxGeometry x="710" y="-1954.5" width="160" height="40" as="geometry" />
        </mxCell>
        <mxCell id="Wy8VQFSeYeaLGXemRtFa-62" value="BlockID" style="ellipse;whiteSpace=wrap;html=1;labelBackgroundColor=none;fontFamily=Helvetica;fontSize=15;" parent="1" vertex="1">
          <mxGeometry x="810" y="-2270" width="150" height="40" as="geometry" />
        </mxCell>
        <mxCell id="Wy8VQFSeYeaLGXemRtFa-63" style="edgeStyle=orthogonalEdgeStyle;rounded=0;orthogonalLoop=1;jettySize=auto;html=1;entryX=0.5;entryY=0;entryDx=0;entryDy=0;endArrow=none;startFill=0;labelBackgroundColor=none;fontColor=default;fontFamily=Helvetica;fontSize=15;" parent="1" source="Wy8VQFSeYeaLGXemRtFa-64" target="Wy8VQFSeYeaLGXemRtFa-61" edge="1">
          <mxGeometry relative="1" as="geometry">
            <Array as="points">
              <mxPoint x="790" y="-2189.5" />
            </Array>
          </mxGeometry>
        </mxCell>
        <mxCell id="Wy8VQFSeYeaLGXemRtFa-64" value="BlockedUserID" style="ellipse;whiteSpace=wrap;html=1;labelBackgroundColor=none;fontFamily=Helvetica;fontSize=15;" parent="1" vertex="1">
          <mxGeometry x="810" y="-2210" width="150" height="40" as="geometry" />
        </mxCell>
        <mxCell id="Wy8VQFSeYeaLGXemRtFa-65" value="BlockerID" style="ellipse;whiteSpace=wrap;html=1;labelBackgroundColor=none;fontFamily=Helvetica;fontSize=15;" parent="1" vertex="1">
          <mxGeometry x="810" y="-2150" width="150" height="40" as="geometry" />
        </mxCell>
        <mxCell id="Wy8VQFSeYeaLGXemRtFa-66" value="BlockTimestamp" style="ellipse;whiteSpace=wrap;html=1;labelBackgroundColor=none;fontFamily=Helvetica;fontSize=15;" parent="1" vertex="1">
          <mxGeometry x="810" y="-2030" width="150" height="37" as="geometry" />
        </mxCell>
        <mxCell id="Wy8VQFSeYeaLGXemRtFa-67" value="Reason" style="ellipse;whiteSpace=wrap;html=1;labelBackgroundColor=none;fontFamily=Helvetica;fontSize=15;" parent="1" vertex="1">
          <mxGeometry x="810" y="-2090" width="150" height="37" as="geometry" />
        </mxCell>
        <mxCell id="Wy8VQFSeYeaLGXemRtFa-68" style="edgeStyle=orthogonalEdgeStyle;rounded=0;orthogonalLoop=1;jettySize=auto;html=1;exitX=0.5;exitY=0;exitDx=0;exitDy=0;entryX=0;entryY=0.5;entryDx=0;entryDy=0;endArrow=none;startFill=0;labelBackgroundColor=none;fontColor=default;fontFamily=Helvetica;fontSize=15;" parent="1" source="Wy8VQFSeYeaLGXemRtFa-72" target="Wy8VQFSeYeaLGXemRtFa-73" edge="1">
          <mxGeometry relative="1" as="geometry" />
        </mxCell>
        <mxCell id="Wy8VQFSeYeaLGXemRtFa-69" style="edgeStyle=orthogonalEdgeStyle;rounded=0;orthogonalLoop=1;jettySize=auto;html=1;entryX=0;entryY=0.5;entryDx=0;entryDy=0;endArrow=none;startFill=0;labelBackgroundColor=none;fontColor=default;fontFamily=Helvetica;fontSize=15;" parent="1" source="Wy8VQFSeYeaLGXemRtFa-72" target="Wy8VQFSeYeaLGXemRtFa-76" edge="1">
          <mxGeometry relative="1" as="geometry" />
        </mxCell>
        <mxCell id="Wy8VQFSeYeaLGXemRtFa-72" value="App&lt;span style=&quot;background-color: initial;&quot;&gt;Settings&lt;/span&gt;" style="rounded=0;whiteSpace=wrap;html=1;labelBackgroundColor=none;fontFamily=Helvetica;fontSize=15;" parent="1" vertex="1">
          <mxGeometry x="440" y="-1954.5" width="160" height="40" as="geometry" />
        </mxCell>
        <mxCell id="Wy8VQFSeYeaLGXemRtFa-73" value="SettingID" style="ellipse;whiteSpace=wrap;html=1;labelBackgroundColor=none;fontFamily=Helvetica;fontSize=15;" parent="1" vertex="1">
          <mxGeometry x="540" y="-2270" width="150" height="40" as="geometry" />
        </mxCell>
        <mxCell id="Wy8VQFSeYeaLGXemRtFa-74" style="edgeStyle=orthogonalEdgeStyle;rounded=0;orthogonalLoop=1;jettySize=auto;html=1;entryX=0.5;entryY=0;entryDx=0;entryDy=0;endArrow=none;startFill=0;labelBackgroundColor=none;fontColor=default;fontFamily=Helvetica;fontSize=15;" parent="1" source="Wy8VQFSeYeaLGXemRtFa-75" target="Wy8VQFSeYeaLGXemRtFa-72" edge="1">
          <mxGeometry relative="1" as="geometry">
            <Array as="points">
              <mxPoint x="520" y="-2190" />
            </Array>
          </mxGeometry>
        </mxCell>
        <mxCell id="Wy8VQFSeYeaLGXemRtFa-75" value="SettingName" style="ellipse;whiteSpace=wrap;html=1;labelBackgroundColor=none;fontFamily=Helvetica;fontSize=15;" parent="1" vertex="1">
          <mxGeometry x="540" y="-2210" width="150" height="40" as="geometry" />
        </mxCell>
        <mxCell id="Wy8VQFSeYeaLGXemRtFa-76" value="SettingValue" style="ellipse;whiteSpace=wrap;html=1;labelBackgroundColor=none;fontFamily=Helvetica;fontSize=15;" parent="1" vertex="1">
          <mxGeometry x="540" y="-2150" width="150" height="40" as="geometry" />
        </mxCell>
        <mxCell id="Wy8VQFSeYeaLGXemRtFa-79" style="edgeStyle=orthogonalEdgeStyle;rounded=0;orthogonalLoop=1;jettySize=auto;html=1;exitX=0.5;exitY=1;exitDx=0;exitDy=0;entryX=0;entryY=0.5;entryDx=0;entryDy=0;endArrow=none;startFill=0;labelBackgroundColor=none;fontColor=default;fontFamily=Helvetica;fontSize=15;" parent="1" source="Wy8VQFSeYeaLGXemRtFa-83" target="Wy8VQFSeYeaLGXemRtFa-84" edge="1">
          <mxGeometry relative="1" as="geometry" />
        </mxCell>
        <mxCell id="Wy8VQFSeYeaLGXemRtFa-80" style="edgeStyle=orthogonalEdgeStyle;rounded=0;orthogonalLoop=1;jettySize=auto;html=1;entryX=0;entryY=0.5;entryDx=0;entryDy=0;endArrow=none;startFill=0;labelBackgroundColor=none;fontColor=default;fontFamily=Helvetica;fontSize=15;" parent="1" source="Wy8VQFSeYeaLGXemRtFa-83" target="Wy8VQFSeYeaLGXemRtFa-87" edge="1">
          <mxGeometry relative="1" as="geometry" />
        </mxCell>
        <mxCell id="Wy8VQFSeYeaLGXemRtFa-82" style="edgeStyle=orthogonalEdgeStyle;rounded=0;orthogonalLoop=1;jettySize=auto;html=1;entryX=0;entryY=0.5;entryDx=0;entryDy=0;endArrow=none;startFill=0;labelBackgroundColor=none;fontColor=default;fontFamily=Helvetica;fontSize=15;" parent="1" source="Wy8VQFSeYeaLGXemRtFa-83" target="Wy8VQFSeYeaLGXemRtFa-88" edge="1">
          <mxGeometry relative="1" as="geometry" />
        </mxCell>
        <mxCell id="Wy8VQFSeYeaLGXemRtFa-83" value="Chat" style="rounded=0;whiteSpace=wrap;html=1;labelBackgroundColor=none;fontFamily=Helvetica;fontSize=15;" parent="1" vertex="1">
          <mxGeometry x="580" y="-1440" width="160" height="40" as="geometry" />
        </mxCell>
        <mxCell id="Wy8VQFSeYeaLGXemRtFa-84" value="ChatID" style="ellipse;whiteSpace=wrap;html=1;labelBackgroundColor=none;fontFamily=Helvetica;fontSize=15;" parent="1" vertex="1">
          <mxGeometry x="700" y="-1318.5" width="150" height="40" as="geometry" />
        </mxCell>
        <mxCell id="Wy8VQFSeYeaLGXemRtFa-85" style="edgeStyle=orthogonalEdgeStyle;rounded=0;orthogonalLoop=1;jettySize=auto;html=1;entryX=0.5;entryY=1;entryDx=0;entryDy=0;endArrow=none;startFill=0;labelBackgroundColor=none;fontColor=default;fontFamily=Helvetica;fontSize=15;" parent="1" source="Wy8VQFSeYeaLGXemRtFa-86" target="Wy8VQFSeYeaLGXemRtFa-83" edge="1">
          <mxGeometry relative="1" as="geometry">
            <Array as="points">
              <mxPoint x="660" y="-1237" />
            </Array>
          </mxGeometry>
        </mxCell>
        <mxCell id="Wy8VQFSeYeaLGXemRtFa-86" value="ChatName" style="ellipse;whiteSpace=wrap;html=1;labelBackgroundColor=none;fontFamily=Helvetica;fontSize=15;" parent="1" vertex="1">
          <mxGeometry x="700" y="-1258.5" width="150" height="40" as="geometry" />
        </mxCell>
        <mxCell id="Wy8VQFSeYeaLGXemRtFa-87" value="CreatorID" style="ellipse;whiteSpace=wrap;html=1;labelBackgroundColor=none;fontFamily=Helvetica;fontSize=15;" parent="1" vertex="1">
          <mxGeometry x="700" y="-1198.5" width="150" height="40" as="geometry" />
        </mxCell>
        <mxCell id="Wy8VQFSeYeaLGXemRtFa-88" value="IsGroupChat" style="ellipse;whiteSpace=wrap;html=1;labelBackgroundColor=none;fontFamily=Helvetica;fontSize=15;" parent="1" vertex="1">
          <mxGeometry x="700" y="-1078.5" width="150" height="37" as="geometry" />
        </mxCell>
        <mxCell id="Wy8VQFSeYeaLGXemRtFa-94" style="edgeStyle=orthogonalEdgeStyle;rounded=0;orthogonalLoop=1;jettySize=auto;html=1;entryX=0;entryY=0.5;entryDx=0;entryDy=0;endArrow=ERmany;endFill=0;labelBackgroundColor=none;fontColor=default;exitX=1;exitY=0.5;exitDx=0;exitDy=0;fontFamily=Helvetica;fontSize=15;" parent="1" source="Wy8VQFSeYeaLGXemRtFa-83" target="Wy8VQFSeYeaLGXemRtFa-28" edge="1">
          <mxGeometry relative="1" as="geometry">
            <mxPoint x="-110" y="-630" as="targetPoint" />
            <Array as="points" />
            <mxPoint x="830" y="-1420" as="sourcePoint" />
          </mxGeometry>
        </mxCell>
        <mxCell id="Wy8VQFSeYeaLGXemRtFa-97" style="edgeStyle=orthogonalEdgeStyle;rounded=0;orthogonalLoop=1;jettySize=auto;html=1;entryX=1;entryY=0.5;entryDx=0;entryDy=0;endArrow=ERmany;endFill=0;labelBackgroundColor=none;fontColor=default;fontFamily=Helvetica;fontSize=15;exitX=0;exitY=0.5;exitDx=0;exitDy=0;startArrow=ERmany;startFill=0;" parent="1" source="Wy8VQFSeYeaLGXemRtFa-17" target="Wy8VQFSeYeaLGXemRtFa-50" edge="1">
          <mxGeometry relative="1" as="geometry">
            <mxPoint x="690" y="-875.5" as="targetPoint" />
            <mxPoint x="210" y="-1420" as="sourcePoint" />
          </mxGeometry>
        </mxCell>
        <mxCell id="Wy8VQFSeYeaLGXemRtFa-102" style="edgeStyle=orthogonalEdgeStyle;rounded=0;orthogonalLoop=1;jettySize=auto;html=1;entryX=0;entryY=0;entryDx=0;entryDy=0;endArrow=none;startFill=0;labelBackgroundColor=none;fontColor=default;fontFamily=Helvetica;fontSize=15;exitX=0.5;exitY=1;exitDx=0;exitDy=0;" parent="1" source="Wy8VQFSeYeaLGXemRtFa-39" target="Wy8VQFSeYeaLGXemRtFa-1" edge="1">
          <mxGeometry relative="1" as="geometry">
            <Array as="points">
              <mxPoint x="250" y="-1760" />
              <mxPoint x="580" y="-1760" />
            </Array>
            <mxPoint x="250" y="-1820" as="sourcePoint" />
          </mxGeometry>
        </mxCell>
        <mxCell id="Wy8VQFSeYeaLGXemRtFa-104" style="edgeStyle=orthogonalEdgeStyle;rounded=0;orthogonalLoop=1;jettySize=auto;html=1;entryX=0.5;entryY=1;entryDx=0;entryDy=0;endArrow=ERmany;endFill=0;labelBackgroundColor=none;fontColor=default;fontFamily=Helvetica;fontSize=15;exitX=0.75;exitY=0;exitDx=0;exitDy=0;" parent="1" source="Wy8VQFSeYeaLGXemRtFa-1" target="Wy8VQFSeYeaLGXemRtFa-61" edge="1">
          <mxGeometry relative="1" as="geometry">
            <mxPoint x="470" y="-1810" as="targetPoint" />
            <mxPoint x="790" y="-1860" as="sourcePoint" />
            <Array as="points">
              <mxPoint x="700" y="-1800" />
              <mxPoint x="790" y="-1800" />
            </Array>
          </mxGeometry>
        </mxCell>
        <mxCell id="Wy8VQFSeYeaLGXemRtFa-108" style="edgeStyle=orthogonalEdgeStyle;rounded=0;orthogonalLoop=1;jettySize=auto;html=1;endArrow=ERmany;endFill=0;labelBackgroundColor=none;fontColor=default;exitX=0.5;exitY=1;exitDx=0;exitDy=0;entryX=0.5;entryY=0;entryDx=0;entryDy=0;fontFamily=Helvetica;fontSize=15;" parent="1" source="Wy8VQFSeYeaLGXemRtFa-1" target="Wy8VQFSeYeaLGXemRtFa-83" edge="1">
          <mxGeometry relative="1" as="geometry">
            <mxPoint x="610" y="-1580" as="targetPoint" />
            <mxPoint x="660" y="-1550" as="sourcePoint" />
            <Array as="points" />
          </mxGeometry>
        </mxCell>
        <mxCell id="Wy8VQFSeYeaLGXemRtFa-111" style="edgeStyle=orthogonalEdgeStyle;rounded=0;orthogonalLoop=1;jettySize=auto;html=1;entryX=0;entryY=0.5;entryDx=0;entryDy=0;endArrow=none;startFill=0;exitX=1;exitY=0.5;exitDx=0;exitDy=0;startArrow=ERmany;labelBackgroundColor=none;fontColor=default;fontFamily=Helvetica;fontSize=15;" parent="1" source="Wy8VQFSeYeaLGXemRtFa-17" target="Wy8VQFSeYeaLGXemRtFa-83" edge="1">
          <mxGeometry relative="1" as="geometry">
            <mxPoint x="1650" y="-590" as="sourcePoint" />
            <mxPoint x="490" y="-1420" as="targetPoint" />
          </mxGeometry>
        </mxCell>
        <mxCell id="7eJA37eeF3XecIRXQD3F-6" style="edgeStyle=orthogonalEdgeStyle;rounded=0;orthogonalLoop=1;jettySize=auto;html=1;exitX=0;exitY=0.5;exitDx=0;exitDy=0;entryX=0.5;entryY=1;entryDx=0;entryDy=0;endArrow=none;endFill=0;fontFamily=Helvetica;fontSize=15;" parent="1" source="7eJA37eeF3XecIRXQD3F-2" target="Wy8VQFSeYeaLGXemRtFa-83" edge="1">
          <mxGeometry relative="1" as="geometry" />
        </mxCell>
        <mxCell id="7eJA37eeF3XecIRXQD3F-2" value="CompanionID" style="ellipse;whiteSpace=wrap;html=1;labelBackgroundColor=none;fontFamily=Helvetica;fontSize=15;" parent="1" vertex="1">
          <mxGeometry x="700" y="-1138.5" width="150" height="37" as="geometry" />
        </mxCell>
        <mxCell id="7eJA37eeF3XecIRXQD3F-4" style="edgeStyle=orthogonalEdgeStyle;rounded=0;orthogonalLoop=1;jettySize=auto;html=1;entryX=0.25;entryY=0;entryDx=0;entryDy=0;endArrow=none;endFill=0;fontFamily=Helvetica;fontSize=15;exitX=0.5;exitY=1;exitDx=0;exitDy=0;" parent="1" source="Wy8VQFSeYeaLGXemRtFa-72" target="Wy8VQFSeYeaLGXemRtFa-1" edge="1">
          <mxGeometry relative="1" as="geometry">
            <Array as="points">
              <mxPoint x="520" y="-1800" />
              <mxPoint x="620" y="-1800" />
            </Array>
            <mxPoint x="520" y="-1820" as="sourcePoint" />
          </mxGeometry>
        </mxCell>
      </root>
    </mxGraphModel>
  </diagram>
</mxfile>
